<svg xmlns="http://www.w3.org/2000/svg" viewBox="0 0 982.96 191.57"><defs><style>.cls-1{fill:#fff;}</style></defs><g id="Layer_2" data-name="Layer 2"><g id="Layer_1-2" data-name="Layer 1"><path class="cls-1" d="M42.36,60.14A22.27,22.27,0,0,1,45,58.07q16.38-9.52,32.79-19c.77-.44,1.56-.82,2.35-1.23a8.42,8.42,0,0,1,8.41.12c2,1.15,4.1,2.3,6.13,3.48q22.49,13,45,26.09,3,1.77,6.2,3.34c1.68.85,4-.22,4.09-2,.17-3.21.21-6.43.12-9.64a3.48,3.48,0,0,0-1.76-2.9c-1.76-1.06-3.49-2.16-5.27-3.19Q118.25,38.87,93.43,24.57c-1.78-1-3.54-2.1-5.4-3a8.63,8.63,0,0,0-7.66,0c-1.32.63-2.59,1.38-3.87,2.11Q49.79,39.17,23.09,54.61a29.36,29.36,0,0,0-4.17,3.14A2.53,2.53,0,0,0,19,61a18.17,18.17,0,0,0,2.7,2.2Q44.52,76.48,67.4,89.72c.51.3,1,.62,1.53.88a9.64,9.64,0,0,0,9.29-.1c2.84-1.55,5.63-3.17,8.44-4.77,2.3-1.3,4.56-2.68,6.9-3.9a8.67,8.67,0,0,1,8.45.08q2,1,3.85,2.14,27.9,16,55.78,32c6.91,4,6.88,4,6.85,11.73,0,4.4,0,8.81-.09,13.22a5.59,5.59,0,0,1-3,5c-1.53.88-3,1.81-4.55,2.69q-33.59,19.38-67.16,38.76c-1.78,1-3.6,2-5.4,3a8.17,8.17,0,0,1-8.4-.16c-1.54-.86-3.1-1.67-4.62-2.55Q40.9,167.94,6.57,148.11c-7-4.05-6.53-4-6.55-10.93q0-19.84,0-39.67C0,95.75.1,94,.24,92.23a3.27,3.27,0,0,1,4.55-2.65C6.91,90.58,9,91.7,11,92.87Q42.26,111,73.49,129.16c2,1.18,4.05,2.38,6.12,3.49a9.12,9.12,0,0,0,9.25,0c4.11-2.29,8.17-4.66,12.25-7,2.3-1.31,4.59-2.62,6.9-3.9a3.52,3.52,0,0,1,3.39-.22c4.89,2.66,9.9,5.12,14.32,8.56a4.84,4.84,0,0,1,.62,1,18.75,18.75,0,0,1-2.51,2.1Q107.07,143,90.26,152.65a26.35,26.35,0,0,1-3.16,1.54,7.34,7.34,0,0,1-6-.11c-2.12-1-4.16-2.18-6.19-3.35Q52,137.45,29.19,124.17c-2.29-1.32-4.63-2.54-7-3.72-1.42-.71-3.78.7-4,2.36a40.12,40.12,0,0,0-.31,4.38c-.05,6.53,0,6.77,5.38,9.86C41.09,147.34,59,157.47,76.67,168c5.13,3,9.48,3.37,14.72.27,17.94-10.63,36.09-20.91,54.13-31.37,6-3.46,6-5.77.28-9.11q-20.57-12-41.21-23.79a25.73,25.73,0,0,0-3.12-1.63,9.38,9.38,0,0,0-7.71.11c-2.13,1-4.12,2.25-6.17,3.41-3.32,1.88-6.6,3.83-10,5.65a8.48,8.48,0,0,1-8.43-.07c-1.3-.69-2.57-1.42-3.84-2.16q-29.36-17-58.7-34a47.43,47.43,0,0,1-5.12-3.41,6.58,6.58,0,0,1-1.32-2.2,2.09,2.09,0,0,1-.1-.87c0-6.17,0-12.34,0-18.51a5.17,5.17,0,0,1,2.44-4.41c1-.68,2-1.24,3-1.83Q41,23.54,76.5,3C83.76-1.19,85.34-.8,91.87,3q35.47,20.51,71,41c1,.59,2,1.21,3,1.84a5.48,5.48,0,0,1,2.54,4.4c.07.88.09,1.76.09,2.64q0,21.6,0,43.2a29.64,29.64,0,0,1-.28,3.51,3.28,3.28,0,0,1-4.73,2.37C161.62,101,159.82,100,158,99q-15.63-9-31.25-18.14c-10.66-6.19-21.36-12.33-32-18.62s-11-6.08-21.55.21c-4.29,2.55-8.64,5-13,7.4a3.23,3.23,0,0,1-2.52.27c-5.26-2.56-10.54-5.1-15-9C42.52,61,42.52,60.64,42.36,60.14Z"/><path class="cls-1" d="M794.4,98.42a18.66,18.66,0,0,0-2.2,3.11c-2,4.88-3.84,9.82-5.81,14.72-.64,1.61-1.49,3.14-2.25,4.72a31.14,31.14,0,0,1-10.61.34,3,3,0,0,1-2.56-2.12c-.1-.27-.23-.54-.32-.81q-7-22.23-13.91-44.47a5.9,5.9,0,0,1-.11-2.58,1.73,1.73,0,0,1,1-1.21A30.57,30.57,0,0,1,769,69.91a3.3,3.3,0,0,1,2,1.52,12.63,12.63,0,0,1,1.27,3.24c2,6.75,3.88,13.52,5.88,20.26a1.78,1.78,0,0,0,1.23,1,1.62,1.62,0,0,0,1.38-.59c.82-1.55,1.53-3.16,2.22-4.77,2.29-5.4,4.54-10.81,6.83-16.2a27.65,27.65,0,0,1,1.6-3.11c.91-1.54,4.57-1.71,5.45-.23a33.33,33.33,0,0,1,2,3.9c2.8,6.45,5.54,12.93,8.37,19.37a7,7,0,0,0,1.61,1.89c.08.08.63-.11.77-.31a7.8,7.8,0,0,0,1.28-2.18c1.92-6.76,3.75-13.55,5.66-20.32.83-3,1.85-3.66,5.07-3.76,1.46,0,2.93,0,4.39,0,6.13,0,6.75.58,4.89,6.43-4.26,13.41-8.32,26.87-12.46,40.31-.26.84-.47,1.7-.78,2.52a3.57,3.57,0,0,1-3.19,2.6c-1.46.1-2.93.13-4.39.11-5.39-.05-5.95.35-8.21-5.75-1.53-4.12-3.22-8.19-4.9-12.24C796.25,101.94,795.39,100.42,794.4,98.42Z"/><path class="cls-1" d="M983,121.16a49.49,49.49,0,0,1-13.89.16c-2.51-2.2-3.33-5.1-4.82-7.59-1.35-2.27-2.61-4.58-4-6.81-.27-.43-1-.63-1.48-.85-1.28-.53-3.39.47-3.47,1.7-.18,2.62-.23,5.26-.41,7.88a29.56,29.56,0,0,1-.57,4.31,1.84,1.84,0,0,1-1.14,1.17,23.52,23.52,0,0,1-11.25-.1,2,2,0,0,1-1.09-1.25,8,8,0,0,1-.43-2.56q0-21.56,0-43.12a7.19,7.19,0,0,1,.51-2.54,2.66,2.66,0,0,1,1.16-1.19,3.49,3.49,0,0,1,1.66-.47c7,0,14.08-.07,21.12,0a17.71,17.71,0,0,1,17.41,16.48,17.71,17.71,0,0,1-4.6,13.74c-3.07,3.43-3,3.53-.86,7.5,1.93,3.62,3.91,7.22,5.77,10.87A9.61,9.61,0,0,1,983,121.16ZM954.13,86.32c0,2.44,0,3.31,0,4.17a2.75,2.75,0,0,0,2.55,2.91,48.33,48.33,0,0,0,6-.24c2.27-.28,3.83-2.45,3.89-5s-1.57-4.79-3.68-5.25a16.19,16.19,0,0,0-6.86-.12,2.18,2.18,0,0,0-1.71,1.7A6.06,6.06,0,0,0,954.13,86.32Z"/><path class="cls-1" d="M623.21,104.93c1.18,0,2.35,0,3.53,0a4.62,4.62,0,0,1,4.4,2.34,4.93,4.93,0,0,0,1.11,1.34c2.39,2,5.32,2.13,8.14.33,2.07-1.31,2.08-4.82,0-5.94a23.63,23.63,0,0,0-4-1.72c-2.24-.7-4.57-1.11-6.79-1.86a41.36,41.36,0,0,1-6.47-2.72,11.79,11.79,0,0,1-6.49-9.86,28.46,28.46,0,0,1,.2-6.12,12.65,12.65,0,0,1,6.2-9.18A17.66,17.66,0,0,1,626.14,70a28.29,28.29,0,0,1,18.15-.54,15.11,15.11,0,0,1,10.79,10.65c1.08,3.5.16,5-3.46,5.15-1.76.06-3.53,0-5.29.06a6.39,6.39,0,0,1-6.08-2.72c-1.6-2.19-4-2.18-6.39-1.61a3.36,3.36,0,0,0-2.44,2.31c-.39,1.14.63,3,1.89,3.62a30.17,30.17,0,0,0,3.26,1.28c2.25.68,4.57,1.13,6.77,1.92a53.57,53.57,0,0,1,7.26,3.11,12.72,12.72,0,0,1,6.52,9c1.36,6.49-.85,14.63-9,18.28a26.86,26.86,0,0,1-23,0c-5.48-2.51-8.52-7-9.31-13-.08-.66.7-2,1.31-2.06,2-.26,4-.48,6.07-.72Z"/><path class="cls-1" d="M716.47,121.26c-3.52-5.39-6.86-10.56-10.27-15.68a30.48,30.48,0,0,0-2.79-3.34c-.11-.12-.55,0-.79.07s-.57.31-.58.48c-.14,3.51-.31,7-.32,10.53,0,8.52.1,8.25-8.17,8.22-1.17,0-2.34-.1-3.51-.17a2.56,2.56,0,0,1-2.37-2.15c-.1-1.16-.24-2.33-.24-3.5q0-20.25,0-40.5a15.63,15.63,0,0,1,.29-3.49A2,2,0,0,1,689.43,70c3.21-.1,6.42-.17,9.62-.14a2.79,2.79,0,0,1,2.54,3c.09,4.4.1,8.8.21,13.2a3.09,3.09,0,0,0,.62,1.49c.12.19.67.34.8.23a8.55,8.55,0,0,0,1.85-1.8c3-4.68,6-9.39,9-14.11a4.23,4.23,0,0,1,3.61-2.15c3.8,0,7.61.09,11.41.18.64,0,1.46,1.5,1.14,2-1,1.76-2.05,3.54-3.17,5.26-3.67,5.65-7.38,11.28-10.82,16.52a6.78,6.78,0,0,0,1.63,4.51c3.94,5.83,7.92,11.64,11.85,17.49a24.9,24.9,0,0,1,2.11,3.82c.16.36-.23,1-.49,1.5a1.1,1.1,0,0,1-.78.35A95.54,95.54,0,0,1,716.47,121.26Z"/><path class="cls-1" d="M412.71,95.35c0-6.74,0-13.48,0-20.22a25.41,25.41,0,0,1,.39-3.47,3.45,3.45,0,0,1,2.39-2.34c6.71-.68,13.4-.91,20.08.52a24.8,24.8,0,0,1,19.59,23.92c0,3.82-.14,7.58-1.58,11.23-3.68,9.31-10.6,14.76-20.3,16.05-5.76.77-11.69.18-17.54.14-1.27,0-2.71-1.63-2.81-3-.13-1.75-.23-3.51-.24-5.26,0-5.86,0-11.73,0-17.59Zm5.05-.56h-.17v12.26c0,10.78-.52,9.74,10.08,9.79,1.17,0,2.33-.14,3.5-.21a20.83,20.83,0,0,0,19.09-17.52c2.05-12.15-5.73-24.72-20-25.39-3.2-.15-6.42,0-9.63,0a2.7,2.7,0,0,0-2.84,2.65C417.74,82.53,417.76,88.66,417.76,94.79Z"/><path class="cls-1" d="M527.24,95.34c0-12.44,7.07-22.41,18.71-25.85a28,28,0,0,1,21.41,1.85c8.56,4.43,12.85,11.84,13.88,21.16,1.09,9.79-3.2,22.69-16.09,27.61-8.37,3.19-16.74,2.9-24.7-1.39C532.15,114.26,527.26,105.39,527.24,95.34Zm4.82,1.18a40,40,0,0,0,1.32,6.7c2.91,8.19,9,12.72,17.44,14.15,7.56,1.29,17.63-1.65,22.59-10.2a23,23,0,0,0,2.24-18.6C571.81,75.43,557.14,69.09,544.52,75,535.91,79.08,532.25,86.23,532.06,96.52Z"/><path class="cls-1" d="M882.29,82.16H861.15c-.88,0-1.76-.11-2.63-.18a2.93,2.93,0,0,1-2.41-2.21c-.14-1.45-.32-2.91-.32-4.37,0-4.92.6-5.59,5.55-5.61q20.7-.06,41.4,0a12.23,12.23,0,0,1,3.47.43,2.09,2.09,0,0,1,1.6,1.85c.05.59.17,1.17.18,1.75.13,8.12.36,8.41-8.09,8.36-5.87,0-11.74,0-17.61,0Z"/><path class="cls-1" d="M882.35,89.54c6.42,0,12.84,0,19.26,0a19,19,0,0,1,4.34.35,2.74,2.74,0,0,1,1.71,1.66,19.19,19.19,0,0,1-.09,8.66,2.37,2.37,0,0,1-1.16,1.2,3.56,3.56,0,0,1-1.67.41q-22.75,0-45.52,0a3.73,3.73,0,0,1-1.69-.37c-.49-.26-1.11-.73-1.19-1.19a32.28,32.28,0,0,1-.54-5.18c0-4.89.59-5.51,5.54-5.54,7,0,14,0,21,0Z"/><path class="cls-1" d="M880.87,121.56c-7.34,0-14.69,0-22,0a2.87,2.87,0,0,1-2.88-2.73c0-2.34,0-4.68.11-7a2.86,2.86,0,0,1,2.28-2.32,8.7,8.7,0,0,1,.87-.13q22.47,0,44.95,0a4.79,4.79,0,0,1,1.73.27,2.42,2.42,0,0,1,1.78,1.73,22.12,22.12,0,0,1-.06,8.73,1.86,1.86,0,0,1-1.23,1.15,22.89,22.89,0,0,1-4.37.44c-7,0-14.1,0-21.15,0Z"/><path class="cls-1" d="M229.82,122c-1.77-.23-3.24-.34-4.67-.62-7.4-1.43-12.22-6.83-13-14.59a4.56,4.56,0,0,1,.46-1.65,1.91,1.91,0,0,1,2.14-1.07c.51.18,1.19.5,1.35.93.62,1.63,1,3.35,1.59,5a9.66,9.66,0,0,0,4.5,5.23c5.57,3,11.21,3.2,16.77,0A9.6,9.6,0,0,0,243,103.7a6.24,6.24,0,0,0-2-2.78,17.7,17.7,0,0,0-4.61-2.43c-2.5-.82-5.12-1.24-7.66-2a59.62,59.62,0,0,1-8.33-2.72c-7.06-3.24-9.35-11-5.51-17.79A11.58,11.58,0,0,1,219,71.54c7.16-4.2,14.51-4.46,21.68-.23a12,12,0,0,1,6.18,11,6.6,6.6,0,0,1-.81,2.42c-.29.65-1.84.57-2.3.09-1.33-1.35-1.38-3.18-2-4.8a9.63,9.63,0,0,0-7.71-6.42,19.52,19.52,0,0,0-9.57.46,8.83,8.83,0,0,0-6.44,8.48,6.94,6.94,0,0,0,4.32,7,45,45,0,0,0,5.79,2c2.25.64,4.57,1.06,6.83,1.68q2.53.7,5,1.64c11.46,4.35,10.28,18,2.8,23.49a15.16,15.16,0,0,1-7.17,3.14C233.61,121.71,231.56,121.84,229.82,122Z"/><path class="cls-1" d="M338.4,88c0-5,0-10,0-15a5.53,5.53,0,0,1,.7-2.46,1.92,1.92,0,0,1,1.41-.8,1.8,1.8,0,0,1,1.47.66,8.14,8.14,0,0,1,1,3.26c.1,7.63.06,15.25.11,22.88a71.59,71.59,0,0,0,.33,7.89,15.62,15.62,0,0,0,1.46,5,15.13,15.13,0,0,0,28.42-5.53,50.43,50.43,0,0,0,.21-6.15c0-7.92,0-15.83.05-23.75a10.91,10.91,0,0,1,.67-3.37,1.83,1.83,0,0,1,1.35-.85,2.22,2.22,0,0,1,1.53.56,2.76,2.76,0,0,1,.79,1.52,22.62,22.62,0,0,1,.29,3.49c0,7.92.07,15.84,0,23.75a54.46,54.46,0,0,1-.75,7.86A18.47,18.47,0,0,1,361,121.81c-3.85.31-7.65.19-11.2-1.46-7-3.26-10.79-8.94-11.3-16.54-.35-5.25-.07-10.55-.07-15.83Z"/><path class="cls-1" d="M293.13,96.77c0,6.14,0,12.29,0,18.43a37.53,37.53,0,0,1-.5,4.33c-.1.7-1.38,1.5-2,1.17-.47-.25-1.14-.59-1.22-1a28.15,28.15,0,0,1-.66-5.15c-.06-10.53,0-21.06-.05-31.59,0-2.33-.13-4.67-.25-7a3.07,3.07,0,0,0-2.4-2.19c-2.34-.07-4.68-.08-7-.16a20.89,20.89,0,0,1-4.35-.34c-.66-.16-1.26-1.09-1.63-1.8s.57-1.88,1.21-2.06a6.83,6.83,0,0,1,1.65-.47q14.91-.06,29.83,0a2.78,2.78,0,0,1,1.66.4c.63.52,1.47,1.28,1.47,1.94a2.54,2.54,0,0,1-1.42,2,34.68,34.68,0,0,1-5.22.41c-2.32.12-4.65.2-7,.37a2,2,0,0,0-1.74,1.74,24.34,24.34,0,0,0-.32,4.36c0,5.56,0,11.11,0,16.67Z"/><path class="cls-1" d="M493.49,94.76c0,7.32,0,14.64,0,22a9.07,9.07,0,0,1-.86,3.31,1.82,1.82,0,0,1-1.43.8,2.28,2.28,0,0,1-1.47-.76,2.89,2.89,0,0,1-.78-1.52,39.87,39.87,0,0,1-.25-4.37q0-19.34,0-38.65a15.5,15.5,0,0,1,.48-4.31,2,2,0,0,1,3.86-.07,9.22,9.22,0,0,1,.49,3.41c0,6.73,0,13.47,0,20.2Z"/></g></g></svg>