<svg width="23" height="23" viewBox="0 0 23 23" fill="none" xmlns="http://www.w3.org/2000/svg">
<path d="M15.8622 0.0234375H6.73102C4.94626 0.0247975 3.23499 0.734393 1.97297 1.99641C0.710956 3.25843 0.00136003 4.9697 0 6.75446V15.8856C0.00108802 17.6705 0.710564 19.3821 1.97261 20.6443C3.23466 21.9065 4.94608 22.6163 6.73102 22.6176H15.8622C17.647 22.616 19.3583 21.9062 20.6203 20.644C21.8823 19.3818 22.5918 17.6705 22.5932 15.8856V6.75446C22.5924 4.96953 21.8829 3.25794 20.6208 1.99581C19.3587 0.733675 17.6471 0.024254 15.8622 0.0234375ZM20.3214 15.8856C20.3212 17.0682 19.8513 18.2023 19.015 19.0385C18.1788 19.8747 17.0448 20.3446 15.8622 20.3449H6.73102C6.14547 20.3449 5.56565 20.2295 5.02468 20.0054C4.48372 19.7813 3.9922 19.4528 3.5782 19.0387C3.1642 18.6246 2.83583 18.133 2.61184 17.592C2.38785 17.051 2.27264 16.4712 2.27277 15.8856V6.75446C2.27264 6.16895 2.38786 5.58916 2.61186 5.0482C2.83586 4.50724 3.16425 4.01571 3.57826 3.6017C3.99228 3.18769 4.4838 2.8593 5.02476 2.6353C5.56572 2.4113 6.14552 2.29607 6.73102 2.29621H15.8622C17.0445 2.29648 18.1783 2.76628 19.0143 3.6023C19.8503 4.43833 20.3201 5.57214 20.3204 6.75446L20.3214 15.8856Z" fill="white"/>
<path d="M11.2967 5.47777C8.07395 5.47777 5.45508 8.09767 5.45508 11.3194C5.45508 14.5411 8.07498 17.161 11.2967 17.161C14.5184 17.161 17.1383 14.5411 17.1383 11.3194C17.1383 8.09767 14.5195 5.47777 11.2967 5.47777ZM11.2967 14.8883C10.3502 14.8884 9.44238 14.5125 8.77299 13.8433C8.10361 13.1741 7.72747 12.2664 7.72734 11.3199C7.7272 10.3734 8.10307 9.46559 8.77227 8.7962C9.44146 8.12682 10.3492 7.75068 11.2957 7.75055C12.2422 7.75041 13.15 8.12628 13.8194 8.79548C14.4888 9.46467 14.8649 10.3724 14.8651 11.3189C14.8652 12.2654 14.4893 13.1732 13.8201 13.8426C13.1509 14.512 12.2432 14.8881 11.2967 14.8883ZM17.1507 4.12109C17.4274 4.1213 17.6979 4.20354 17.928 4.35743C18.158 4.51132 18.3373 4.72996 18.4431 4.9857C18.5489 5.24144 18.5765 5.52281 18.5225 5.79425C18.4685 6.06569 18.3352 6.31502 18.1395 6.51073C17.9437 6.70643 17.6944 6.83973 17.423 6.89377C17.1515 6.94782 16.8702 6.92018 16.6144 6.81436C16.3587 6.70854 16.1401 6.52928 15.9862 6.29924C15.8323 6.0692 15.75 5.7987 15.7498 5.52193C15.7498 4.74962 16.2736 4.12109 17.1507 4.12109Z" fill="white"/>
</svg>
