<svg width="25" height="25" viewBox="0 0 25 25" fill="none" xmlns="http://www.w3.org/2000/svg">
<path d="M22.017 0C22.7433 0 23.4399 0.28854 23.9535 0.802144C24.4671 1.31575 24.7557 2.01235 24.7557 2.73869V21.9095C24.7557 22.6359 24.4671 23.3325 23.9535 23.8461C23.4399 24.3597 22.7433 24.6482 22.017 24.6482H2.84611C2.11977 24.6482 1.42317 24.3597 0.909566 23.8461C0.395962 23.3325 0.107422 22.6359 0.107422 21.9095V2.73869C0.107422 2.01235 0.395962 1.31575 0.909566 0.802144C1.42317 0.28854 2.11977 0 2.84611 0H22.017ZM21.3323 21.2249V13.9673C21.3323 12.7834 20.862 11.6479 20.0248 10.8108C19.1876 9.97358 18.0522 9.50326 16.8682 9.50326C16.2351 9.52507 15.6164 9.69803 15.0637 10.0077C14.511 10.3174 14.0405 10.7548 13.6913 11.2834V9.76344H9.87086V21.2249H13.6913V14.474C13.6689 14.2095 13.7017 13.9433 13.7875 13.6922C13.8733 13.441 14.0103 13.2105 14.1899 13.015C14.3695 12.8196 14.5877 12.6636 14.8307 12.5569C15.0737 12.4501 15.3362 12.395 15.6016 12.395C15.867 12.395 16.1295 12.4501 16.3725 12.5569C16.6155 12.6636 16.8337 12.8196 17.0132 13.015C17.1928 13.2105 17.3298 13.441 17.4157 13.6922C17.5015 13.9433 17.5342 14.2095 17.5118 14.474V21.2249H21.3323ZM5.42049 7.61356C6.03062 7.61356 6.61576 7.37119 7.04719 6.93976C7.47861 6.50834 7.72099 5.92319 7.72099 5.31306C7.7455 4.99511 7.70403 4.67553 7.59919 4.37436C7.49435 4.07319 7.3284 3.79694 7.11175 3.56295C6.8951 3.32895 6.63242 3.14225 6.3402 3.01457C6.04798 2.88689 5.73253 2.82098 5.41364 2.82098C5.09474 2.82098 4.77929 2.88689 4.48707 3.01457C4.19486 3.14225 3.93218 3.32895 3.71553 3.56295C3.49888 3.79694 3.33292 4.07319 3.22808 4.37436C3.12324 4.67553 3.08178 4.99511 3.10629 5.31306C3.10991 5.92445 3.35532 6.50956 3.78892 6.9406C4.22253 7.37164 4.80909 7.61358 5.42049 7.61356ZM7.32388 21.2249V9.76344H3.53079V21.2249H7.32388Z" fill="white"/>
</svg>
