<svg width="23" height="23" viewBox="0 0 23 23" fill="none" xmlns="http://www.w3.org/2000/svg">
<path d="M19.5001 3.90742C18.4962 2.89605 17.3013 2.09437 15.9849 1.54897C14.6685 1.00357 13.2567 0.725377 11.8317 0.730539C9.92682 0.732402 8.05572 1.23473 6.40598 2.18722C4.75623 3.13971 3.3857 4.50893 2.43163 6.15775C1.47755 7.80658 0.973437 9.67717 0.96974 11.5821C0.966056 13.4871 1.46294 15.3596 2.41062 17.0121L0.876953 22.6401L6.62821 21.1338C8.21631 22.0173 10.0008 22.4882 11.818 22.5032C14.7069 22.5033 17.4789 21.3622 19.5305 19.3285C21.5821 17.2948 22.7475 14.533 22.7728 11.6442C22.7632 10.2027 22.4691 8.7773 21.9075 7.44966C21.3459 6.12201 20.5278 4.91827 19.5001 3.90742ZM11.8317 20.6272C10.2127 20.6282 8.62336 20.1931 7.23072 19.3674L6.90208 19.1619L3.4924 20.0657L4.39617 16.7382L4.17708 16.3959C3.01211 14.5153 2.57732 12.2728 2.9551 10.093C3.33288 7.91339 4.49697 5.94797 6.22685 4.56913C7.95675 3.19028 10.1322 2.49379 12.3413 2.6116C14.5503 2.72939 16.6395 3.6533 18.2129 5.2083C19.9328 6.89012 20.9173 9.18421 20.9516 11.5895C20.9299 13.9939 19.9595 16.2925 18.2515 17.9851C16.5436 19.6776 14.2363 20.6273 11.8317 20.6272ZM16.7751 13.8626C16.5012 13.7256 15.1729 13.0684 14.9264 12.9862C14.68 12.904 14.4883 12.8493 14.3102 13.1231C14.0424 13.4903 13.7543 13.8422 13.4475 14.1775C13.2969 14.3692 13.1326 14.3829 12.8587 14.1775C11.2973 13.5605 9.99639 12.4239 9.17519 10.9596C8.88763 10.4803 9.44906 10.5077 9.96941 9.48067C10.0079 9.40659 10.0279 9.32443 10.0279 9.24104C10.0279 9.15765 10.0079 9.07548 9.96941 9.0014C9.96941 8.86445 9.3532 7.5225 9.13411 6.98845C8.91501 6.45441 8.69592 6.53657 8.5179 6.52287H7.98386C7.84549 6.52499 7.70917 6.55664 7.58401 6.61567C7.45885 6.67471 7.34774 6.75978 7.25811 6.86521C6.95085 7.16397 6.7112 7.52512 6.5553 7.92432C6.3994 8.32351 6.33088 8.75148 6.35434 9.17942C6.4402 10.2038 6.82598 11.1802 7.46351 11.9866C8.63046 13.7336 10.2297 15.1488 12.1056 16.0946C13.0895 16.6689 14.2329 16.9091 15.3646 16.7793C15.7415 16.7045 16.0985 16.5513 16.4122 16.3295C16.726 16.1078 16.9896 15.8224 17.1859 15.4921C17.3677 15.089 17.425 14.6408 17.3502 14.2049C17.2269 14.068 17.0489 13.9995 16.7751 13.8626Z" fill="white"/>
</svg>
