<svg width="169" height="192" viewBox="0 0 169 192" fill="none" xmlns="http://www.w3.org/2000/svg">
<g clip-path="url(#clip0_220_5)">
<path d="M42.3601 60.14C43.1868 59.3846 44.0693 58.6926 45.0001 58.07C55.9201 51.7233 66.8501 45.39 77.7901 39.07C78.5601 38.63 79.3501 38.25 80.1401 37.84C81.4294 37.121 82.8851 36.7536 84.3612 36.7747C85.8373 36.7957 87.2819 37.2045 88.5501 37.96C90.5501 39.11 92.6501 40.26 94.6801 41.44C109.673 50.1067 124.673 58.8033 139.68 67.53C141.68 68.71 143.747 69.8233 145.88 70.87C147.56 71.72 149.88 70.65 149.97 68.87C150.14 65.66 150.18 62.44 150.09 59.23C150.069 58.6366 149.895 58.0586 149.587 57.551C149.279 57.0434 148.847 56.6231 148.33 56.33C146.57 55.27 144.84 54.17 143.06 53.14C126.52 43.6267 109.977 34.1033 93.4301 24.57C91.6501 23.57 89.8901 22.47 88.0301 21.57C86.8395 20.9803 85.5288 20.6735 84.2001 20.6735C82.8715 20.6735 81.5608 20.9803 80.3701 21.57C79.0501 22.2 77.7801 22.95 76.5001 23.68C58.6935 34.0067 40.8901 44.3167 23.0901 54.61C21.6097 55.5308 20.2141 56.5816 18.9201 57.75C18.5495 58.2148 18.3544 58.7952 18.369 59.3895C18.3837 59.9838 18.6071 60.554 19.0001 61C19.8276 61.8181 20.7318 62.5548 21.7001 63.2C36.9135 72.0533 52.1468 80.8933 67.4001 89.72C67.9101 90.02 68.4001 90.34 68.9301 90.6C70.3617 91.3673 71.9639 91.7604 73.588 91.743C75.2121 91.7255 76.8054 91.2979 78.2201 90.5C81.0601 88.95 83.8501 87.33 86.6601 85.73C88.9601 84.43 91.2201 83.05 93.5601 81.83C94.8585 81.1214 96.3165 80.7568 97.7955 80.7708C99.2746 80.7848 100.725 81.177 102.01 81.91C103.343 82.5767 104.627 83.29 105.86 84.05C124.46 94.7167 143.053 105.383 161.64 116.05C168.55 120.05 168.52 120.05 168.49 127.78C168.49 132.18 168.49 136.59 168.4 141C168.409 142.029 168.133 143.04 167.604 143.922C167.074 144.804 166.312 145.523 165.4 146C163.87 146.88 162.4 147.81 160.85 148.69C138.457 161.61 116.07 174.53 93.6901 187.45C91.9101 188.45 90.0901 189.45 88.2901 190.45C87.0067 191.186 85.5474 191.561 84.068 191.532C82.5885 191.504 81.1445 191.075 79.8901 190.29C78.3501 189.43 76.7901 188.62 75.2701 187.74C52.3568 174.54 29.4568 161.33 6.57013 148.11C-0.429873 144.06 0.0401265 144.11 0.0201265 137.18C0.0201265 123.953 0.0201265 110.73 0.0201265 97.51C0.000126465 95.75 0.100126 94 0.240126 92.23C0.29512 91.7206 0.469059 91.2312 0.747916 90.8013C1.02677 90.3715 1.40274 90.0131 1.84551 89.7553C2.28828 89.4974 2.78545 89.3472 3.29693 89.3167C3.80841 89.2863 4.31989 89.3765 4.79013 89.58C6.91013 90.58 9.00013 91.7 11.0001 92.87C31.8401 104.957 52.6701 117.053 73.4901 129.16C75.4901 130.34 77.5401 131.54 79.6101 132.65C81.0119 133.475 82.6087 133.91 84.2351 133.91C85.8615 133.91 87.4584 133.475 88.8601 132.65C92.9701 130.36 97.0301 127.99 101.11 125.65C103.41 124.34 105.7 123.03 108.01 121.75C108.511 121.43 109.084 121.242 109.677 121.204C110.27 121.165 110.862 121.278 111.4 121.53C116.29 124.19 121.3 126.65 125.72 130.09C125.967 130.397 126.175 130.733 126.34 131.09C125.566 131.862 124.726 132.564 123.83 133.19C112.657 139.73 101.467 146.217 90.2601 152.65C89.2423 153.233 88.1866 153.748 87.1001 154.19C86.1487 154.595 85.1224 154.795 84.0884 154.776C83.0544 154.757 82.036 154.52 81.1001 154.08C78.9801 153.08 76.9401 151.9 74.9101 150.73C59.6368 141.877 44.3968 133.023 29.1901 124.17C26.9001 122.85 24.5601 121.63 22.1901 120.45C20.7701 119.74 18.4101 121.15 18.1901 122.81C18.0069 124.263 17.9034 125.725 17.8801 127.19C17.8301 133.72 17.8801 133.96 23.2601 137.05C41.0901 147.34 59.0001 157.47 76.6701 168C81.8001 171 86.1501 171.37 91.3901 168.27C109.33 157.64 127.48 147.36 145.52 136.9C151.52 133.44 151.52 131.13 145.8 127.79C132.087 119.79 118.35 111.86 104.59 104C103.589 103.386 102.546 102.841 101.47 102.37C100.251 101.841 98.9325 101.577 97.6033 101.596C96.2741 101.615 94.9641 101.916 93.7601 102.48C91.6301 103.48 89.6401 104.73 87.5901 105.89C84.2701 107.77 80.9901 109.72 77.5901 111.54C76.3009 112.264 74.8446 112.639 73.3658 112.627C71.887 112.614 70.4372 112.216 69.1601 111.47C67.8601 110.78 66.5901 110.05 65.3201 109.31C45.7468 97.9766 26.1801 86.6433 6.62013 75.31C4.84147 74.2853 3.13121 73.1462 1.50013 71.9C0.920036 71.2604 0.471512 70.5128 0.180126 69.7C0.0857292 69.4203 0.0516478 69.1238 0.0801265 68.83C0.0801265 62.66 0.0801265 56.49 0.0801265 50.32C0.0767934 49.4378 0.299257 48.5694 0.726348 47.7975C1.15344 47.0256 1.77095 46.3758 2.52013 45.91C3.52013 45.23 4.52013 44.67 5.52013 44.08C29.1735 30.3867 52.8335 16.6933 76.5001 2.99999C83.7601 -1.19001 85.3401 -0.800014 91.8701 2.99999C115.517 16.6733 139.183 30.34 162.87 44C163.87 44.59 164.87 45.21 165.87 45.84C166.617 46.3139 167.239 46.9616 167.681 47.7278C168.123 48.4941 168.373 49.356 168.41 50.24C168.48 51.12 168.5 52 168.5 52.88C168.5 67.28 168.5 81.68 168.5 96.08C168.476 97.2545 168.383 98.4266 168.22 99.59C168.134 100.098 167.929 100.578 167.623 100.993C167.316 101.407 166.916 101.743 166.456 101.974C165.995 102.204 165.487 102.323 164.971 102.321C164.456 102.319 163.949 102.195 163.49 101.96C161.62 101 159.82 100 158 99C147.58 93 137.163 86.9533 126.75 80.86C116.09 74.67 105.39 68.53 94.7501 62.24C84.1101 55.95 83.7501 56.16 73.2001 62.45C68.9101 65 64.5601 67.45 60.2001 69.85C59.82 70.0626 59.4008 70.1961 58.9677 70.2425C58.5346 70.2889 58.0967 70.2472 57.6801 70.12C52.4201 67.56 47.1401 65.02 42.6801 61.12C42.5201 61 42.5201 60.64 42.3601 60.14Z" fill="black"/>
</g>
<defs>
<clipPath id="clip0_220_5">
<rect width="169" height="192" fill="white"/>
</clipPath>
</defs>
</svg>
